<?xml version="1.0" encoding="utf-8"?>
<!-- Generator: Adobe Illustrator 17.1.0, SVG Export Plug-In . SVG Version: 6.00 Build 0)  -->
<!DOCTYPE svg PUBLIC "-//W3C//DTD SVG 1.1//EN" "http://www.w3.org/Graphics/SVG/1.1/DTD/svg11.dtd">
<svg version="1.1" id="pointer-screen" xmlns="http://www.w3.org/2000/svg" xmlns:xlink="http://www.w3.org/1999/xlink" x="0px"
	 y="0px" viewBox="0 0 1010 1010" enable-background="new 0 0 1010 1010" xml:space="preserve">
<g id="pointer-screen-pointer-screen">
	<path id="pointer-screen-label" fill="#ACAF48" d="M1010,505c0,278.9043-226.1055,505-505,505C226.0859,1010,0,783.9043,0,505
		S226.0859,0,505,0C783.8945,0,1010,226.0957,1010,505z"/>
	<g id="pointer-screen-pointer-screen_1_">
		<g id="pointer-screen-screen">
			<g>
				<path fill="#FFFFFF" d="M787.7998,578.1465v58.4883c0,10.791-8.7187,19.5096-19.5088,19.5096H241.71
					c-10.771,0-19.5098-8.7187-19.5098-19.5096v-58.4883"/>
				<path fill="#454545" d="M768.291,666.2451H241.71c-16.3243,0-29.6099-13.2764-29.6099-29.6103v-58.4883
					c0-5.583,4.5171-10.1006,10.1001-10.1006c5.5825,0,10.0996,4.5176,10.0996,10.1006v58.4883
					c0,5.1884,4.2217,9.4101,9.4102,9.4101h526.581c5.1875,0,9.4092-4.2217,9.4092-9.4101v-58.4883
					c0-5.583,4.5176-10.1006,10.0996-10.1006c5.583,0,10.1006,4.5176,10.1006,10.1006v58.4883
					C797.9004,652.9687,784.6143,666.2451,768.291,666.2451L768.291,666.2451z"/>
			</g>
			<g>
				<path fill="#FC6E51" d="M222.2002,578.1465V295.3457c0-10.79,8.7388-19.5093,19.5098-19.5093h526.581
					c10.7901,0,19.5088,8.7193,19.5088,19.5093v282.8008"/>
				<path fill="#454545" d="M787.7998,588.2461c-5.582,0-10.0996-4.5274-10.0996-10.0996V295.3457
					c0-5.1875-4.2217-9.4092-9.4092-9.4092H241.71c-5.1885,0-9.4102,4.2217-9.4102,9.4092v282.8008
					c0,5.5722-4.5171,10.0996-10.0996,10.0996c-5.583,0-10.1001-4.5274-10.1001-10.0996V295.3457
					c0-16.333,13.2856-29.6094,29.6099-29.6094h526.581c16.3232,0,29.6094,13.2764,29.6094,29.6094v282.8008
					C797.9004,583.7187,793.3828,588.2461,787.7998,588.2461L787.7998,588.2461z"/>
			</g>
			<g>
				<rect x="436.7461" y="656.1445" fill="#FFFFFF" width="136.5273" height="78.0186"/>
				<path fill="#454545" d="M573.2734,744.2637H436.7461c-5.5825,0-10.0996-4.5176-10.0996-10.1006v-78.0186
					c0-5.5721,4.5171-10.0995,10.0996-10.0995h136.5273c5.583,0,10.1006,4.5274,10.1006,10.0995v78.0186
					C583.374,739.7461,578.8564,744.2637,573.2734,744.2637L573.2734,744.2637z M446.8462,724.0635h116.3276v-57.8184H446.8462
					V724.0635L446.8462,724.0635z"/>
			</g>
			<g>
				<path fill="#454545" d="M787.7998,588.2461H222.2002c-5.583,0-10.1001-4.5274-10.1001-10.0996
					c0-5.583,4.5171-10.1006,10.1001-10.1006h565.5996c5.583,0,10.1006,4.5176,10.1006,10.1006
					C797.9004,583.7187,793.3828,588.2461,787.7998,588.2461L787.7998,588.2461z"/>
			</g>
			<g>
				<path fill="#454545" d="M612.293,744.2637H397.7271c-5.5826,0-10.1001-4.5176-10.1001-10.1006
					c0-5.5723,4.5175-10.0996,10.1001-10.0996H612.293c5.582,0,10.0995,4.5273,10.0995,10.0996
					C622.3926,739.7461,617.875,744.2637,612.293,744.2637L612.293,744.2637z"/>
			</g>
			<path fill="#454545" d="M514.7646,614.6992c0,5.3858-4.3789,9.7647-9.7646,9.7647c-5.3853,0-9.7451-4.3789-9.7451-9.7647
				c0-5.3847,4.3598-9.7451,9.7451-9.7451C510.3857,604.9541,514.7646,609.3145,514.7646,614.6992z"/>
		</g>
		<g id="pointer-screen-pointer">
			<g>
				<path fill="#FFB933" d="M562.957,378.4346c33.6534,33.6533,33.6534,88.1777,0.0196,121.831
					c-33.6534,33.6338-88.1973,33.6338-121.8311,0c-33.6338-33.6533-33.6338-88.1777,0-121.831
					C474.7793,344.8008,529.3232,344.8008,562.957,378.4346z"/>
				<g>
					<g>
						<polygon fill="#454545" points="455.4473,410.8252 411.1411,366.5195 425.4229,352.2373 469.729,396.543 455.4473,410.8252 
													"/>
					</g>
					<g>
						<polygon fill="#454545" points="511.1348,381.5312 490.9351,381.5312 490.9351,317.5381 511.1348,317.5381 511.1348,381.5312 
													"/>
					</g>
					<g>
						<polygon fill="#454545" points="443.3545,452.2314 376.9155,452.2314 376.9155,432.0312 443.3545,432.0312 443.3545,452.2314 
													"/>
					</g>
					<g>
						<polygon fill="#454545" points="546.623,410.8252 532.3408,396.543 576.647,352.2373 590.9287,366.5195 546.623,410.8252 
													"/>
					</g>
					<g>
						<polygon fill="#454545" points="425.4229,532.0254 411.1411,517.7432 455.4473,473.4375 469.729,487.7197 425.4229,532.0254 
													"/>
					</g>
				</g>
			</g>
			<g>
				<g>
					<g>
						<g>
							<polygon fill="#FFFFFF" points="562.8384,603.9092 491.4282,432.5049 662.8125,503.915 588.8379,529.9346 							"/>
							<path fill="#454545" d="M563.6372,632.0879L472.668,413.7451l218.3144,90.959l-94.2245,33.1406L563.6372,632.0879
								L563.6372,632.0879z M510.1885,451.2549l51.8511,124.4648l18.8784-53.7158l53.7245-18.8975L510.1885,451.2549
								L510.1885,451.2549z"/>
						</g>
					</g>
				</g>
			</g>
		</g>
	</g>
</g>
</svg>
